#!OML:ASF F:\VICON\USERDATA\INSTALL\rory3\rory3.ASF
:FULLY-SPECIFIED
:DEGREES
159
root -0.636622 16.34 -8.81354 1.21214 1.38047 2.49761
lowerback 13.0052 -0.516325 -7.14064
upperback -4.93739 -1.78745 1.8278
thorax -12.5546 -0.166107 6.50162
lowerneck -9.89906 -5.04115 -3.10879
upperneck 19.0252 -7.11439 3.39464
head 7.72517 -3.31308 0.937881
rclavicle 1.9456e-014 -1.59028e-014
rhumerus -45.7926 -4.69028 -80.3228
rradius 22.1028
rwrist 9.51624
rhand -7.01189 19.5832
rfingers 7.12502
rthumb 18.8594 -9.52256
lclavicle 1.9456e-014 -1.59028e-014
lhumerus -36.7517 9.57096 81.8524
lradius 24.3482
lwrist -2.80624
lhand -3.72045 20.0083
lfingers 7.12502
lthumb 22.0224 48.7745
rfemur -21.4216 14.9464 19.9219
rtibia 31.7712
rfoot -10.8171 -10.0748
rtoes 28.9331
lfemur -8.3071 0.961806 -20.4129
ltibia 58.6663
lfoot 19.6018 6.31495
ltoes 14.9708
160
root -0.663956 16.3529 -8.69911 1.15192 1.39649 2.48559
lowerback 13.0012 -0.419699 -7.22552
upperback -4.81045 -1.66916 1.81828
thorax -12.4244 -0.114432 6.50841
lowerneck -10.4628 -5.13611 -3.0605
upperneck 19.1516 -7.24821 3.40484
head 7.87174 -3.3618 0.903245
rclavicle -2.55935e-015 9.54166e-015
rhumerus -45.5042 -4.47525 -80.4307
rradius 22.2869
rwrist 9.61857
rhand -7.1806 19.3547
rfingers 7.12502
rthumb 18.6971 -9.7667
lclavicle -2.55935e-015 9.54166e-015
lhumerus -36.5745 9.41906 81.9997
lradius 24.676
lwrist -2.47076
lhand -3.94598 20.183
lfingers 7.12502
lthumb 21.8058 48.9745
rfemur -20.6392 14.7835 20.2027
rtibia 31.3929
rfoot -10.8807 -10.069
rtoes 26.971
lfemur -9.82083 1.49295 -20.1675
ltibia 60.7668
lfoot 21.1772 8.66488
ltoes 22.8974
161
root -0.694537 16.3691 -8.58748 1.14414 1.75376 2.38378
lowerback 13.0155 -0.415052 -7.16329
upperback -4.74848 -1.65402 1.78779
thorax -12.3651 -0.118802 6.43352
lowerneck -10.6007 -5.25244 -3.01455
upperneck 19.1627 -7.42551 3.45768
head 7.90695 -3.43516 0.890558
rclavicle 1.19271e-015 1.19271e-015
rhumerus -45.3717 -4.38404 -80.5853
rradius 22.6282
rwrist 9.25849
rhand -7.00323 19.1351
rfingers 7.12502
rthumb 18.8677 -9.96985
lclavicle 1.19271e-015 1.19271e-015
lhumerus -36.4394 9.21257 82.0456
lradius 24.7107
lwrist -2.35379
lhand -4.14949 19.7878
lfingers 7.12502
lthumb 21.6104 48.6019
rfemur -19.8664 14.6193 20.5715
rtibia 31.0451
rfoot -11.1725 -10.2729
rtoes 25.3335
lfemur -11.4372 1.76391 -19.8021
ltibia 62.73
lfoot 21.4081 9.67871
ltoes 26.8993
162
root -0.725421 16.3802 -8.47627 1.10232 2.11335 2.42498
lowerback 13.0807 -0.394729 -7.29953
upperback -4.76055 -1.66332 1.73251
thorax -12.4171 -0.111938 6.45474
lowerneck -10.3308 -5.31516 -3.1125
upperneck 18.9928 -7.53285 3.65673
head 7.81799 -3.48074 0.969315
rclavicle -3.77691e-015 -9.54166e-015
rhumerus -45.364 -4.34177 -80.6417
rradius 22.869
rwrist 9.0445
rhand -7.03095 19.086
rfingers 7.12502
rthumb 18.8411 -10.0215
lclavicle -3.77691e-015 -9.54166e-015
lhumerus -36.4869 8.96579 82.0702
lradius 24.7868
lwrist -2.10463
lhand -4.29762 20.0327
lfingers 7.12502
lthumb 21.4681 48.8632
rfemur -19.0914 14.357 20.8027
rtibia 30.754
rfoot -11.6026 -10.2397
rtoes 24.8156
lfemur -12.9698 2.02971 -19.5934
ltibia 64.5143
lfoot 21.4802 9.26265
ltoes 27.8195
163
root -0.750216 16.3888 -8.36112 1.02742 1.99949 2.37869
lowerback 12.9782 -0.234313 -7.34784
upperback -4.66194 -1.44805 1.70118
thorax -12.2778 -0.0183137 6.39147
lowerneck -10.3921 -5.41652 -3.25674
upperneck 19.0079 -7.69558 3.90012
head 7.85616 -3.54397 1.05314
rclavicle -5.76476e-015 -1.19271e-015
rhumerus -45.1123 -4.5038 -80.5182
rradius 23.0059
rwrist 9.52272
rhand -7.24767 19.1377
rfingers 7.12502
rthumb 18.6326 -9.9899
lclavicle -5.76476e-015 -1.19271e-015
lhumerus -36.3638 8.94418 82.0771
lradius 24.917
lwrist -1.89488
lhand -4.3493 20.6411
lfingers 7.12502
lthumb 21.4185 49.4772
rfemur -18.3731 14.3031 21.1122
rtibia 30.4655
rfoot -11.7928 -10.0588
rtoes 25.0995
lfemur -14.2658 2.68847 -19.3745
ltibia 66.0669
lfoot 21.3001 8.13573
ltoes 26.1065
164
root -0.770388 16.3945 -8.25343 0.954128 1.78786 2.28629
lowerback 12.9674 -0.050285 -7.305
upperback -4.53086 -1.18912 1.68278
thorax -12.1641 0.0900986 6.28383
lowerneck -10.6443 -5.51351 -3.31026
upperneck 19.109 -7.83881 3.9992
head 7.94726 -3.60029 1.07083
rclavicle 3.42904e-015 -1.98785e-015
rhumerus -44.6396 -4.66689 -80.4046
rradius 23.1255
rwrist 9.7413
rhand -7.05015 18.8184
rfingers 7.12502
rthumb 18.8226 -10.2909
lclavicle 3.42904e-015 -1.98785e-015
lhumerus -36.1112 8.98238 82.0869
lradius 24.913
lwrist -1.79392
lhand -4.3078 20.55
lfingers 7.12502
lthumb 21.4584 49.3815
rfemur -17.7375 14.2653 21.4457
rtibia 30.2353
rfoot -11.9297 -9.9111
rtoes 24.7051
lfemur -15.5172 3.36688 -19.1506
ltibia 67.4983
lfoot 20.2262 6.70882
ltoes 24.2697
165
root -0.794624 16.4002 -8.15497 0.922228 1.80304 2.23463
lowerback 13.1403 0.0662682 -7.32188
upperback -4.52714 -1.05159 1.65591
thorax -12.2879 0.161354 6.23791
lowerneck -10.5426 -5.62116 -3.34876
upperneck 19.0642 -7.98225 4.00797
head 7.92191 -3.67251 1.06792
rclavicle 1.66731e-014 -1.27222e-014
rhumerus -44.4873 -4.51381 -80.4842
rradius 23.4555
rwrist 9.33586
rhand -6.79871 18.3184
rfingers 7.12502
rthumb 19.0644 -10.7673
lclavicle 1.66731e-014 -1.27222e-014
lhumerus -36.0261 9.03809 81.9656
lradius 24.8109
lwrist -1.56878
lhand -4.27396 20.0195
lfingers 7.12502
lthumb 21.4909 48.8473
rfemur -17.1417 14.2371 21.7229
rtibia 29.9989
rfoot -12.305 -9.91514
rtoes 24.5231
lfemur -16.8686 3.7602 -18.9772
ltibia 68.8561
lfoot 18.6124 5.26714
ltoes 23.651
